<?xml version="1.0" encoding="UTF-8" standalone="no"?>
<!DOCTYPE svg PUBLIC "-//W3C//DTD SVG 1.1//EN"
 "http://www.w3.org/Graphics/SVG/1.1/DTD/svg11.dtd">
<!-- Generated by graphviz version 2.40.1 (20161225.0304)
 -->
<!-- Title: dependencies Pages: 1 -->
<svg width="1275pt" height="211pt"
 viewBox="0.00 0.00 1275.00 211.00" xmlns="http://www.w3.org/2000/svg" xmlns:xlink="http://www.w3.org/1999/xlink">
<g id="graph0" class="graph" transform="scale(1 1) rotate(0) translate(4 207)">
<title>dependencies</title>
<polygon fill="#ffffff" stroke="transparent" points="-4,4 -4,-207 1271,-207 1271,4 -4,4"/>
<text text-anchor="start" x="612.5091" y="-42.4" font-family="sans-serif" font-weight="bold" font-size="14.00" fill="#000000">Legend</text>
<polygon fill="#ffffb3" stroke="transparent" points="399.5,-10 399.5,-30 419.5,-30 419.5,-10 399.5,-10"/>
<text text-anchor="start" x="423.129" y="-15.4" font-family="sans-serif" font-size="14.00" fill="#000000"> &#160;Declarations</text>
<polygon fill="#8dd3c7" stroke="transparent" points="512.5,-10 512.5,-30 532.5,-30 532.5,-10 512.5,-10"/>
<text text-anchor="start" x="536.2251" y="-15.4" font-family="sans-serif" font-size="14.00" fill="#000000"> &#160;Module</text>
<polygon fill="#80b1d3" stroke="transparent" points="598.5,-10 598.5,-30 618.5,-30 618.5,-10 598.5,-10"/>
<text text-anchor="start" x="622.2812" y="-15.4" font-family="sans-serif" font-size="14.00" fill="#000000"> &#160;Bootstrap</text>
<polygon fill="#fdb462" stroke="transparent" points="695.5,-10 695.5,-30 715.5,-30 715.5,-10 695.5,-10"/>
<text text-anchor="start" x="719.1732" y="-15.4" font-family="sans-serif" font-size="14.00" fill="#000000"> &#160;Providers</text>
<polygon fill="#fb8072" stroke="transparent" points="791.5,-10 791.5,-30 811.5,-30 811.5,-10 791.5,-10"/>
<text text-anchor="start" x="815.2258" y="-15.4" font-family="sans-serif" font-size="14.00" fill="#000000"> &#160;Exports</text>
<g id="clust1" class="cluster">
<title>cluster_ResourcesModule</title>
<polygon fill="none" stroke="#000000" stroke-dasharray="1,5" points="8,-70 8,-195 1259,-195 1259,-70 8,-70"/>
</g>
<g id="clust2" class="cluster">
<title>cluster_ResourcesModule_declarations</title>
<polygon fill="none" stroke="#000000" points="509,-78 509,-130 1251,-130 1251,-78 509,-78"/>
</g>
<g id="clust7" class="cluster">
<title>cluster_ResourcesModule_imports</title>
<polygon fill="none" stroke="#000000" points="16,-78 16,-130 501,-130 501,-78 16,-78"/>
</g>
<!-- EditResourceComponent -->
<g id="node1" class="node">
<title>EditResourceComponent</title>
<polygon fill="#ffffb3" stroke="#000000" points="1243.252,-122 1086.748,-122 1086.748,-86 1243.252,-86 1243.252,-122"/>
<text text-anchor="middle" x="1165" y="-99.8" font-family="Times,serif" font-size="14.00" fill="#000000">EditResourceComponent</text>
</g>
<!-- ResourcesModule -->
<g id="node5" class="node">
<title>ResourcesModule</title>
<polygon fill="#8dd3c7" stroke="#000000" points="688.58,-187 685.58,-191 664.58,-191 661.58,-187 571.42,-187 571.42,-151 688.58,-151 688.58,-187"/>
<text text-anchor="middle" x="630" y="-164.8" font-family="Times,serif" font-size="14.00" fill="#000000">ResourcesModule</text>
</g>
<!-- EditResourceComponent&#45;&gt;ResourcesModule -->
<g id="edge1" class="edge">
<title>EditResourceComponent&#45;&gt;ResourcesModule</title>
<path fill="none" stroke="#000000" d="M1165,-122.2921C1165,-144.2057 1165,-178 1165,-178 1165,-178 698.7848,-178 698.7848,-178"/>
<polygon fill="#000000" stroke="#000000" points="698.7848,-174.5001 688.7848,-178 698.7847,-181.5001 698.7848,-174.5001"/>
</g>
<!-- PatientComponent -->
<g id="node2" class="node">
<title>PatientComponent</title>
<polygon fill="#ffffb3" stroke="#000000" points="1069.2162,-122 948.7838,-122 948.7838,-86 1069.2162,-86 1069.2162,-122"/>
<text text-anchor="middle" x="1009" y="-99.8" font-family="Times,serif" font-size="14.00" fill="#000000">PatientComponent</text>
</g>
<!-- PatientComponent&#45;&gt;ResourcesModule -->
<g id="edge2" class="edge">
<title>PatientComponent&#45;&gt;ResourcesModule</title>
<path fill="none" stroke="#000000" d="M1009,-122.1061C1009,-141.3391 1009,-169 1009,-169 1009,-169 698.8029,-169 698.8029,-169"/>
<polygon fill="#000000" stroke="#000000" points="698.8029,-165.5001 688.8029,-169 698.8029,-172.5001 698.8029,-165.5001"/>
</g>
<!-- ResourcesTableComponent -->
<g id="node3" class="node">
<title>ResourcesTableComponent</title>
<polygon fill="#ffffb3" stroke="#000000" points="931.2352,-122 760.7648,-122 760.7648,-86 931.2352,-86 931.2352,-122"/>
<text text-anchor="middle" x="846" y="-99.8" font-family="Times,serif" font-size="14.00" fill="#000000">ResourcesTableComponent</text>
</g>
<!-- ResourcesTableComponent&#45;&gt;ResourcesModule -->
<g id="edge3" class="edge">
<title>ResourcesTableComponent&#45;&gt;ResourcesModule</title>
<path fill="none" stroke="#000000" d="M846,-122.027C846,-138.3976 846,-160 846,-160 846,-160 698.7376,-160 698.7376,-160"/>
<polygon fill="#000000" stroke="#000000" points="698.7377,-156.5001 688.7376,-160 698.7376,-163.5001 698.7377,-156.5001"/>
</g>
<!-- ResourcesTableContainerComponent -->
<g id="node4" class="node">
<title>ResourcesTableContainerComponent</title>
<polygon fill="#ffffb3" stroke="#000000" points="742.9426,-122 517.0574,-122 517.0574,-86 742.9426,-86 742.9426,-122"/>
<text text-anchor="middle" x="630" y="-99.8" font-family="Times,serif" font-size="14.00" fill="#000000">ResourcesTableContainerComponent</text>
</g>
<!-- ResourcesTableContainerComponent&#45;&gt;ResourcesModule -->
<g id="edge4" class="edge">
<title>ResourcesTableContainerComponent&#45;&gt;ResourcesModule</title>
<path fill="none" stroke="#000000" d="M630,-122.1061C630,-122.1061 630,-140.991 630,-140.991"/>
<polygon fill="#000000" stroke="#000000" points="626.5001,-140.9909 630,-150.991 633.5001,-140.991 626.5001,-140.9909"/>
</g>
<!-- AllMaterialModule -->
<g id="node6" class="node">
<title>AllMaterialModule</title>
<polygon fill="#8dd3c7" stroke="#000000" points="493.3585,-122 490.3585,-126 469.3585,-126 466.3585,-122 368.6415,-122 368.6415,-86 493.3585,-86 493.3585,-122"/>
<text text-anchor="middle" x="431" y="-99.8" font-family="Times,serif" font-size="14.00" fill="#000000">AllMaterialModule</text>
</g>
<!-- AllMaterialModule&#45;&gt;ResourcesModule -->
<g id="edge5" class="edge">
<title>AllMaterialModule&#45;&gt;ResourcesModule</title>
<path fill="none" stroke="#000000" d="M431,-122.027C431,-138.3976 431,-160 431,-160 431,-160 561.3698,-160 561.3698,-160"/>
<polygon fill="#000000" stroke="#000000" points="561.3698,-163.5001 571.3698,-160 561.3697,-156.5001 561.3698,-163.5001"/>
</g>
<!-- ResourcesRoutingModule -->
<g id="node7" class="node">
<title>ResourcesRoutingModule</title>
<polygon fill="#8dd3c7" stroke="#000000" points="350.1979,-122 347.1979,-126 326.1979,-126 323.1979,-122 187.8021,-122 187.8021,-86 350.1979,-86 350.1979,-122"/>
<text text-anchor="middle" x="269" y="-99.8" font-family="Times,serif" font-size="14.00" fill="#000000">ResourcesRoutingModule</text>
</g>
<!-- ResourcesRoutingModule&#45;&gt;ResourcesModule -->
<g id="edge6" class="edge">
<title>ResourcesRoutingModule&#45;&gt;ResourcesModule</title>
<path fill="none" stroke="#000000" d="M269,-122.1061C269,-141.3391 269,-169 269,-169 269,-169 561.1957,-169 561.1957,-169"/>
<polygon fill="#000000" stroke="#000000" points="561.1957,-172.5001 571.1957,-169 561.1956,-165.5001 561.1957,-172.5001"/>
</g>
<!-- SmartCommonModule -->
<g id="node8" class="node">
<title>SmartCommonModule</title>
<polygon fill="#8dd3c7" stroke="#000000" points="169.6066,-122 166.6066,-126 145.6066,-126 142.6066,-122 24.3934,-122 24.3934,-86 169.6066,-86 169.6066,-122"/>
<text text-anchor="middle" x="97" y="-99.8" font-family="Times,serif" font-size="14.00" fill="#000000">SmartCommonModule</text>
</g>
<!-- SmartCommonModule&#45;&gt;ResourcesModule -->
<g id="edge7" class="edge">
<title>SmartCommonModule&#45;&gt;ResourcesModule</title>
<path fill="none" stroke="#000000" d="M97,-122.2921C97,-144.2057 97,-178 97,-178 97,-178 561.435,-178 561.435,-178"/>
<polygon fill="#000000" stroke="#000000" points="561.435,-181.5001 571.435,-178 561.435,-174.5001 561.435,-181.5001"/>
</g>
</g>
</svg>
