<?xml version="1.0" encoding="UTF-8" standalone="no"?>
<!DOCTYPE svg PUBLIC "-//W3C//DTD SVG 1.1//EN"
 "http://www.w3.org/Graphics/SVG/1.1/DTD/svg11.dtd">
<!-- Generated by graphviz version 2.40.1 (20161225.0304)
 -->
<!-- Title: dependencies Pages: 1 -->
<svg width="1149pt" height="284pt"
 viewBox="0.00 0.00 1149.00 284.00" xmlns="http://www.w3.org/2000/svg" xmlns:xlink="http://www.w3.org/1999/xlink">
<g id="graph0" class="graph" transform="scale(1 1) rotate(0) translate(4 280)">
<title>dependencies</title>
<polygon fill="#ffffff" stroke="transparent" points="-4,4 -4,-280 1145,-280 1145,4 -4,4"/>
<text text-anchor="start" x="549.5091" y="-42.4" font-family="sans-serif" font-weight="bold" font-size="14.00" fill="#000000">Legend</text>
<polygon fill="#ffffb3" stroke="transparent" points="336.5,-10 336.5,-30 356.5,-30 356.5,-10 336.5,-10"/>
<text text-anchor="start" x="360.129" y="-15.4" font-family="sans-serif" font-size="14.00" fill="#000000"> &#160;Declarations</text>
<polygon fill="#8dd3c7" stroke="transparent" points="449.5,-10 449.5,-30 469.5,-30 469.5,-10 449.5,-10"/>
<text text-anchor="start" x="473.2251" y="-15.4" font-family="sans-serif" font-size="14.00" fill="#000000"> &#160;Module</text>
<polygon fill="#80b1d3" stroke="transparent" points="535.5,-10 535.5,-30 555.5,-30 555.5,-10 535.5,-10"/>
<text text-anchor="start" x="559.2812" y="-15.4" font-family="sans-serif" font-size="14.00" fill="#000000"> &#160;Bootstrap</text>
<polygon fill="#fdb462" stroke="transparent" points="632.5,-10 632.5,-30 652.5,-30 652.5,-10 632.5,-10"/>
<text text-anchor="start" x="656.1732" y="-15.4" font-family="sans-serif" font-size="14.00" fill="#000000"> &#160;Providers</text>
<polygon fill="#fb8072" stroke="transparent" points="728.5,-10 728.5,-30 748.5,-30 748.5,-10 728.5,-10"/>
<text text-anchor="start" x="752.2258" y="-15.4" font-family="sans-serif" font-size="14.00" fill="#000000"> &#160;Exports</text>
<g id="clust1" class="cluster">
<title>cluster_SmartCommonModule</title>
<polygon fill="none" stroke="#000000" stroke-dasharray="1,5" points="8,-70 8,-268 1133,-268 1133,-70 8,-70"/>
</g>
<g id="clust2" class="cluster">
<title>cluster_SmartCommonModule_declarations</title>
<polygon fill="none" stroke="#000000" points="164,-78 164,-130 1125,-130 1125,-78 164,-78"/>
</g>
<g id="clust8" class="cluster">
<title>cluster_SmartCommonModule_imports</title>
<polygon fill="none" stroke="#000000" points="16,-78 16,-130 156,-130 156,-78 16,-78"/>
</g>
<g id="clust9" class="cluster">
<title>cluster_SmartCommonModule_exports</title>
<polygon fill="none" stroke="#000000" points="80,-208 80,-260 1060,-260 1060,-208 80,-208"/>
</g>
<!-- AccessTokenTimerComponent -->
<g id="node1" class="node">
<title>AccessTokenTimerComponent</title>
<polygon fill="#ffffb3" stroke="#000000" points="1117.4482,-122 926.5518,-122 926.5518,-86 1117.4482,-86 1117.4482,-122"/>
<text text-anchor="middle" x="1022" y="-99.8" font-family="Times,serif" font-size="14.00" fill="#000000">AccessTokenTimerComponent</text>
</g>
<!-- SmartCommonModule -->
<g id="node6" class="node">
<title>SmartCommonModule</title>
<polygon fill="#8dd3c7" stroke="#000000" points="660.6066,-187 657.6066,-191 636.6066,-191 633.6066,-187 515.3934,-187 515.3934,-151 660.6066,-151 660.6066,-187"/>
<text text-anchor="middle" x="588" y="-164.8" font-family="Times,serif" font-size="14.00" fill="#000000">SmartCommonModule</text>
</g>
<!-- AccessTokenTimerComponent&#45;&gt;SmartCommonModule -->
<g id="edge1" class="edge">
<title>AccessTokenTimerComponent&#45;&gt;SmartCommonModule</title>
<path fill="none" stroke="#000000" d="M989.375,-122.2667C989.375,-140.5552 989.375,-166 989.375,-166 989.375,-166 670.686,-166 670.686,-166"/>
<polygon fill="#000000" stroke="#000000" points="670.686,-162.5001 660.686,-166 670.6859,-169.5001 670.686,-162.5001"/>
</g>
<!-- ErrorDialogComponent -->
<g id="node2" class="node">
<title>ErrorDialogComponent</title>
<polygon fill="#ffffb3" stroke="#000000" points="908.4692,-122 759.5308,-122 759.5308,-86 908.4692,-86 908.4692,-122"/>
<text text-anchor="middle" x="834" y="-99.8" font-family="Times,serif" font-size="14.00" fill="#000000">ErrorDialogComponent</text>
</g>
<!-- ErrorDialogComponent&#45;&gt;SmartCommonModule -->
<g id="edge2" class="edge">
<title>ErrorDialogComponent&#45;&gt;SmartCommonModule</title>
<path fill="none" stroke="#000000" d="M799.875,-122.0091C799.875,-138.0494 799.875,-159 799.875,-159 799.875,-159 670.6189,-159 670.6189,-159"/>
<polygon fill="#000000" stroke="#000000" points="670.619,-155.5001 660.6189,-159 670.6189,-162.5001 670.619,-155.5001"/>
</g>
<!-- ObjectViewerComponent -->
<g id="node3" class="node">
<title>ObjectViewerComponent</title>
<polygon fill="#ffffb3" stroke="#000000" points="741.8431,-122 582.1569,-122 582.1569,-86 741.8431,-86 741.8431,-122"/>
<text text-anchor="middle" x="662" y="-99.8" font-family="Times,serif" font-size="14.00" fill="#000000">ObjectViewerComponent</text>
</g>
<!-- ObjectViewerComponent&#45;&gt;SmartCommonModule -->
<g id="edge3" class="edge">
<title>ObjectViewerComponent&#45;&gt;SmartCommonModule</title>
<path fill="none" stroke="#000000" d="M621.3159,-122.1061C621.3159,-122.1061 621.3159,-140.991 621.3159,-140.991"/>
<polygon fill="#000000" stroke="#000000" points="617.816,-140.9909 621.3159,-150.991 624.816,-140.991 617.816,-140.9909"/>
</g>
<!-- RequestResponseLogComponent -->
<g id="node4" class="node">
<title>RequestResponseLogComponent</title>
<polygon fill="#ffffb3" stroke="#000000" points="564.1413,-122 361.8587,-122 361.8587,-86 564.1413,-86 564.1413,-122"/>
<text text-anchor="middle" x="463" y="-99.8" font-family="Times,serif" font-size="14.00" fill="#000000">RequestResponseLogComponent</text>
</g>
<!-- RequestResponseLogComponent&#45;&gt;SmartCommonModule -->
<g id="edge4" class="edge">
<title>RequestResponseLogComponent&#45;&gt;SmartCommonModule</title>
<path fill="none" stroke="#000000" d="M539.8836,-122.1061C539.8836,-122.1061 539.8836,-140.991 539.8836,-140.991"/>
<polygon fill="#000000" stroke="#000000" points="536.3837,-140.9909 539.8836,-150.991 543.3837,-140.991 536.3837,-140.9909"/>
</g>
<!-- ResourcesMenuComponent -->
<g id="node5" class="node">
<title>ResourcesMenuComponent</title>
<polygon fill="#ffffb3" stroke="#000000" points="343.5225,-122 172.4775,-122 172.4775,-86 343.5225,-86 343.5225,-122"/>
<text text-anchor="middle" x="258" y="-99.8" font-family="Times,serif" font-size="14.00" fill="#000000">ResourcesMenuComponent</text>
</g>
<!-- ResourcesMenuComponent&#45;&gt;SmartCommonModule -->
<g id="edge5" class="edge">
<title>ResourcesMenuComponent&#45;&gt;SmartCommonModule</title>
<path fill="none" stroke="#000000" d="M312.8452,-122.0091C312.8452,-138.0494 312.8452,-159 312.8452,-159 312.8452,-159 505.3464,-159 505.3464,-159"/>
<polygon fill="#000000" stroke="#000000" points="505.3464,-162.5001 515.3464,-159 505.3464,-155.5001 505.3464,-162.5001"/>
</g>
<!-- AccessTokenTimerComponent  -->
<g id="node8" class="node">
<title>AccessTokenTimerComponent </title>
<polygon fill="#fb8072" stroke="#000000" points="1052.4487,-252 857.5513,-252 857.5513,-216 1052.4487,-216 1052.4487,-252"/>
<text text-anchor="middle" x="955" y="-229.8" font-family="Times,serif" font-size="14.00" fill="#000000">AccessTokenTimerComponent </text>
</g>
<!-- SmartCommonModule&#45;&gt;AccessTokenTimerComponent  -->
<g id="edge7" class="edge">
<title>SmartCommonModule&#45;&gt;AccessTokenTimerComponent </title>
<path fill="none" stroke="#000000" stroke-dasharray="5,2" d="M660.575,-173C747.9603,-173 883.1303,-173 883.1303,-173 883.1303,-173 883.1303,-205.698 883.1303,-205.698"/>
<polygon fill="#000000" stroke="#000000" points="879.6303,-205.698 883.1303,-215.698 886.6303,-205.698 879.6303,-205.698"/>
</g>
<!-- ErrorDialogComponent  -->
<g id="node9" class="node">
<title>ErrorDialogComponent </title>
<polygon fill="#fb8072" stroke="#000000" points="840.4699,-252 687.5301,-252 687.5301,-216 840.4699,-216 840.4699,-252"/>
<text text-anchor="middle" x="764" y="-229.8" font-family="Times,serif" font-size="14.00" fill="#000000">ErrorDialogComponent </text>
</g>
<!-- SmartCommonModule&#45;&gt;ErrorDialogComponent  -->
<g id="edge8" class="edge">
<title>SmartCommonModule&#45;&gt;ErrorDialogComponent </title>
<path fill="none" stroke="#000000" stroke-dasharray="5,2" d="M660.6825,-180C689.0237,-180 714.8435,-180 714.8435,-180 714.8435,-180 714.8435,-205.7181 714.8435,-205.7181"/>
<polygon fill="#000000" stroke="#000000" points="711.3435,-205.718 714.8435,-215.7181 718.3435,-205.7181 711.3435,-205.718"/>
</g>
<!-- ObjectViewerComponent  -->
<g id="node10" class="node">
<title>ObjectViewerComponent </title>
<polygon fill="#fb8072" stroke="#000000" points="669.8434,-252 506.1566,-252 506.1566,-216 669.8434,-216 669.8434,-252"/>
<text text-anchor="middle" x="588" y="-229.8" font-family="Times,serif" font-size="14.00" fill="#000000">ObjectViewerComponent </text>
</g>
<!-- SmartCommonModule&#45;&gt;ObjectViewerComponent  -->
<g id="edge9" class="edge">
<title>SmartCommonModule&#45;&gt;ObjectViewerComponent </title>
<path fill="none" stroke="#000000" stroke-dasharray="5,2" d="M588,-187.1061C588,-187.1061 588,-205.991 588,-205.991"/>
<polygon fill="#000000" stroke="#000000" points="584.5001,-205.9909 588,-215.991 591.5001,-205.991 584.5001,-205.9909"/>
</g>
<!-- RequestResponseLogComponent  -->
<g id="node11" class="node">
<title>RequestResponseLogComponent </title>
<polygon fill="#fb8072" stroke="#000000" points="488.141,-252 281.859,-252 281.859,-216 488.141,-216 488.141,-252"/>
<text text-anchor="middle" x="385" y="-229.8" font-family="Times,serif" font-size="14.00" fill="#000000">RequestResponseLogComponent </text>
</g>
<!-- SmartCommonModule&#45;&gt;RequestResponseLogComponent  -->
<g id="edge10" class="edge">
<title>SmartCommonModule&#45;&gt;RequestResponseLogComponent </title>
<path fill="none" stroke="#000000" stroke-dasharray="5,2" d="M515.0256,-180C471.5927,-180 424.875,-180 424.875,-180 424.875,-180 424.875,-205.7181 424.875,-205.7181"/>
<polygon fill="#000000" stroke="#000000" points="421.3751,-205.718 424.875,-215.7181 428.3751,-205.7181 421.3751,-205.718"/>
</g>
<!-- ResourcesMenuComponent  -->
<g id="node12" class="node">
<title>ResourcesMenuComponent </title>
<polygon fill="#fb8072" stroke="#000000" points="263.5218,-252 88.4782,-252 88.4782,-216 263.5218,-216 263.5218,-252"/>
<text text-anchor="middle" x="176" y="-229.8" font-family="Times,serif" font-size="14.00" fill="#000000">ResourcesMenuComponent </text>
</g>
<!-- SmartCommonModule&#45;&gt;ResourcesMenuComponent  -->
<g id="edge11" class="edge">
<title>SmartCommonModule&#45;&gt;ResourcesMenuComponent </title>
<path fill="none" stroke="#000000" stroke-dasharray="5,2" d="M515.3168,-173C407.5266,-173 217.875,-173 217.875,-173 217.875,-173 217.875,-205.698 217.875,-205.698"/>
<polygon fill="#000000" stroke="#000000" points="214.3751,-205.698 217.875,-215.698 221.3751,-205.698 214.3751,-205.698"/>
</g>
<!-- AllMaterialModule -->
<g id="node7" class="node">
<title>AllMaterialModule</title>
<polygon fill="#8dd3c7" stroke="#000000" points="148.3585,-122 145.3585,-126 124.3585,-126 121.3585,-122 23.6415,-122 23.6415,-86 148.3585,-86 148.3585,-122"/>
<text text-anchor="middle" x="86" y="-99.8" font-family="Times,serif" font-size="14.00" fill="#000000">AllMaterialModule</text>
</g>
<!-- AllMaterialModule&#45;&gt;SmartCommonModule -->
<g id="edge6" class="edge">
<title>AllMaterialModule&#45;&gt;SmartCommonModule</title>
<path fill="none" stroke="#000000" d="M118.4592,-122.2667C118.4592,-140.5552 118.4592,-166 118.4592,-166 118.4592,-166 505.4065,-166 505.4065,-166"/>
<polygon fill="#000000" stroke="#000000" points="505.4065,-169.5001 515.4065,-166 505.4065,-162.5001 505.4065,-169.5001"/>
</g>
</g>
</svg>
