<?xml version="1.0" encoding="UTF-8" standalone="no"?>
<!DOCTYPE svg PUBLIC "-//W3C//DTD SVG 1.1//EN"
 "http://www.w3.org/Graphics/SVG/1.1/DTD/svg11.dtd">
<!-- Generated by graphviz version 2.40.1 (20161225.0304)
 -->
<!-- Title: dependencies Pages: 1 -->
<svg width="894pt" height="284pt"
 viewBox="0.00 0.00 894.00 284.00" xmlns="http://www.w3.org/2000/svg" xmlns:xlink="http://www.w3.org/1999/xlink">
<g id="graph0" class="graph" transform="scale(1 1) rotate(0) translate(4 280)">
<title>dependencies</title>
<polygon fill="#ffffff" stroke="transparent" points="-4,4 -4,-280 890,-280 890,4 -4,4"/>
<text text-anchor="start" x="422.0091" y="-42.4" font-family="sans-serif" font-weight="bold" font-size="14.00" fill="#000000">Legend</text>
<polygon fill="#ffffb3" stroke="transparent" points="209,-10 209,-30 229,-30 229,-10 209,-10"/>
<text text-anchor="start" x="232.629" y="-15.4" font-family="sans-serif" font-size="14.00" fill="#000000"> &#160;Declarations</text>
<polygon fill="#8dd3c7" stroke="transparent" points="322,-10 322,-30 342,-30 342,-10 322,-10"/>
<text text-anchor="start" x="345.7251" y="-15.4" font-family="sans-serif" font-size="14.00" fill="#000000"> &#160;Module</text>
<polygon fill="#80b1d3" stroke="transparent" points="408,-10 408,-30 428,-30 428,-10 408,-10"/>
<text text-anchor="start" x="431.7812" y="-15.4" font-family="sans-serif" font-size="14.00" fill="#000000"> &#160;Bootstrap</text>
<polygon fill="#fdb462" stroke="transparent" points="505,-10 505,-30 525,-30 525,-10 505,-10"/>
<text text-anchor="start" x="528.6732" y="-15.4" font-family="sans-serif" font-size="14.00" fill="#000000"> &#160;Providers</text>
<polygon fill="#fb8072" stroke="transparent" points="601,-10 601,-30 621,-30 621,-10 601,-10"/>
<text text-anchor="start" x="624.7258" y="-15.4" font-family="sans-serif" font-size="14.00" fill="#000000"> &#160;Exports</text>
<g id="clust1" class="cluster">
<title>cluster_AppModule</title>
<polygon fill="none" stroke="#000000" stroke-dasharray="1,5" points="8,-70 8,-268 878,-268 878,-70 8,-70"/>
</g>
<g id="clust2" class="cluster">
<title>cluster_AppModule_declarations</title>
<polygon fill="none" stroke="#000000" points="748,-78 748,-130 870,-130 870,-78 748,-78"/>
</g>
<g id="clust4" class="cluster">
<title>cluster_AppModule_imports</title>
<polygon fill="none" stroke="#000000" points="16,-78 16,-130 740,-130 740,-78 16,-78"/>
</g>
<g id="clust6" class="cluster">
<title>cluster_AppModule_bootstrap</title>
<polygon fill="none" stroke="#000000" points="392,-208 392,-260 516,-260 516,-208 392,-208"/>
</g>
<!-- AppComponent -->
<g id="node1" class="node">
<title>AppComponent</title>
<polygon fill="#ffffb3" stroke="#000000" points="861.9399,-122 756.0601,-122 756.0601,-86 861.9399,-86 861.9399,-122"/>
<text text-anchor="middle" x="809" y="-99.8" font-family="Times,serif" font-size="14.00" fill="#000000">AppComponent</text>
</g>
<!-- AppModule -->
<g id="node2" class="node">
<title>AppModule</title>
<polygon fill="#8dd3c7" stroke="#000000" points="495.6571,-187 492.6571,-191 471.6571,-191 468.6571,-187 412.3429,-187 412.3429,-151 495.6571,-151 495.6571,-187"/>
<text text-anchor="middle" x="454" y="-164.8" font-family="Times,serif" font-size="14.00" fill="#000000">AppModule</text>
</g>
<!-- AppComponent&#45;&gt;AppModule -->
<g id="edge1" class="edge">
<title>AppComponent&#45;&gt;AppModule</title>
<path fill="none" stroke="#000000" d="M809,-122.2843C809,-143.3211 809,-175 809,-175 809,-175 505.7669,-175 505.7669,-175"/>
<polygon fill="#000000" stroke="#000000" points="505.767,-171.5001 495.7669,-175 505.7669,-178.5001 505.767,-171.5001"/>
</g>
<!-- AppComponent  -->
<g id="node8" class="node">
<title>AppComponent </title>
<polygon fill="#80b1d3" stroke="#000000" points="508.439,-252 399.561,-252 399.561,-216 508.439,-216 508.439,-252"/>
<text text-anchor="middle" x="454" y="-229.8" font-family="Times,serif" font-size="14.00" fill="#000000">AppComponent </text>
</g>
<!-- AppModule&#45;&gt;AppComponent  -->
<g id="edge7" class="edge">
<title>AppModule&#45;&gt;AppComponent </title>
<path fill="none" stroke="#000000" stroke-dasharray="1,5" d="M454,-187.1061C454,-187.1061 454,-205.991 454,-205.991"/>
<polygon fill="#000000" stroke="#000000" points="450.5001,-205.9909 454,-215.991 457.5001,-205.991 450.5001,-205.9909"/>
</g>
<!-- AllMaterialModule -->
<g id="node3" class="node">
<title>AllMaterialModule</title>
<polygon fill="#8dd3c7" stroke="#000000" points="732.3585,-122 729.3585,-126 708.3585,-126 705.3585,-122 607.6415,-122 607.6415,-86 732.3585,-86 732.3585,-122"/>
<text text-anchor="middle" x="670" y="-99.8" font-family="Times,serif" font-size="14.00" fill="#000000">AllMaterialModule</text>
</g>
<!-- AllMaterialModule&#45;&gt;AppModule -->
<g id="edge2" class="edge">
<title>AllMaterialModule&#45;&gt;AppModule</title>
<path fill="none" stroke="#000000" d="M670,-122.0225C670,-139.3734 670,-163 670,-163 670,-163 505.9031,-163 505.9031,-163"/>
<polygon fill="#000000" stroke="#000000" points="505.9031,-159.5001 495.9031,-163 505.9031,-166.5001 505.9031,-159.5001"/>
</g>
<!-- AppRoutingModule -->
<g id="node4" class="node">
<title>AppRoutingModule</title>
<polygon fill="#8dd3c7" stroke="#000000" points="589.2744,-122 586.2744,-126 565.2744,-126 562.2744,-122 460.7256,-122 460.7256,-86 589.2744,-86 589.2744,-122"/>
<text text-anchor="middle" x="525" y="-99.8" font-family="Times,serif" font-size="14.00" fill="#000000">AppRoutingModule</text>
</g>
<!-- AppRoutingModule&#45;&gt;AppModule -->
<g id="edge3" class="edge">
<title>AppRoutingModule&#45;&gt;AppModule</title>
<path fill="none" stroke="#000000" d="M478.2206,-122.1061C478.2206,-122.1061 478.2206,-140.991 478.2206,-140.991"/>
<polygon fill="#000000" stroke="#000000" points="474.7206,-140.9909 478.2206,-150.991 481.7206,-140.991 474.7206,-140.9909"/>
</g>
<!-- MiscPagesModule -->
<g id="node5" class="node">
<title>MiscPagesModule</title>
<polygon fill="#8dd3c7" stroke="#000000" points="443.2008,-122 440.2008,-126 419.2008,-126 416.2008,-122 322.7992,-122 322.7992,-86 443.2008,-86 443.2008,-122"/>
<text text-anchor="middle" x="383" y="-99.8" font-family="Times,serif" font-size="14.00" fill="#000000">MiscPagesModule</text>
</g>
<!-- MiscPagesModule&#45;&gt;AppModule -->
<g id="edge4" class="edge">
<title>MiscPagesModule&#45;&gt;AppModule</title>
<path fill="none" stroke="#000000" d="M427.6361,-122.1061C427.6361,-122.1061 427.6361,-140.991 427.6361,-140.991"/>
<polygon fill="#000000" stroke="#000000" points="424.1361,-140.9909 427.6361,-150.991 431.1361,-140.991 424.1361,-140.9909"/>
</g>
<!-- ResourcesModule -->
<g id="node6" class="node">
<title>ResourcesModule</title>
<polygon fill="#8dd3c7" stroke="#000000" points="304.58,-122 301.58,-126 280.58,-126 277.58,-122 187.42,-122 187.42,-86 304.58,-86 304.58,-122"/>
<text text-anchor="middle" x="246" y="-99.8" font-family="Times,serif" font-size="14.00" fill="#000000">ResourcesModule</text>
</g>
<!-- ResourcesModule&#45;&gt;AppModule -->
<g id="edge5" class="edge">
<title>ResourcesModule&#45;&gt;AppModule</title>
<path fill="none" stroke="#000000" d="M246,-122.0225C246,-139.3734 246,-163 246,-163 246,-163 401.9081,-163 401.9081,-163"/>
<polygon fill="#000000" stroke="#000000" points="401.9081,-166.5001 411.9081,-163 401.9081,-159.5001 401.9081,-166.5001"/>
</g>
<!-- SmartCommonModule -->
<g id="node7" class="node">
<title>SmartCommonModule</title>
<polygon fill="#8dd3c7" stroke="#000000" points="169.6066,-122 166.6066,-126 145.6066,-126 142.6066,-122 24.3934,-122 24.3934,-86 169.6066,-86 169.6066,-122"/>
<text text-anchor="middle" x="97" y="-99.8" font-family="Times,serif" font-size="14.00" fill="#000000">SmartCommonModule</text>
</g>
<!-- SmartCommonModule&#45;&gt;AppModule -->
<g id="edge6" class="edge">
<title>SmartCommonModule&#45;&gt;AppModule</title>
<path fill="none" stroke="#000000" d="M97,-122.2843C97,-143.3211 97,-175 97,-175 97,-175 401.9978,-175 401.9978,-175"/>
<polygon fill="#000000" stroke="#000000" points="401.9978,-178.5001 411.9978,-175 401.9977,-171.5001 401.9978,-178.5001"/>
</g>
</g>
</svg>
