<?xml version="1.0" encoding="UTF-8" standalone="no"?>
<!DOCTYPE svg PUBLIC "-//W3C//DTD SVG 1.1//EN"
 "http://www.w3.org/Graphics/SVG/1.1/DTD/svg11.dtd">
<!-- Generated by graphviz version 2.40.1 (20161225.0304)
 -->
<!-- Title: dependencies Pages: 1 -->
<svg width="1740pt" height="211pt"
 viewBox="0.00 0.00 1740.00 211.00" xmlns="http://www.w3.org/2000/svg" xmlns:xlink="http://www.w3.org/1999/xlink">
<g id="graph0" class="graph" transform="scale(1 1) rotate(0) translate(4 207)">
<title>dependencies</title>
<polygon fill="#ffffff" stroke="transparent" points="-4,4 -4,-207 1736,-207 1736,4 -4,4"/>
<text text-anchor="start" x="845.0091" y="-42.4" font-family="sans-serif" font-weight="bold" font-size="14.00" fill="#000000">Legend</text>
<polygon fill="#ffffb3" stroke="transparent" points="632,-10 632,-30 652,-30 652,-10 632,-10"/>
<text text-anchor="start" x="655.629" y="-15.4" font-family="sans-serif" font-size="14.00" fill="#000000"> &#160;Declarations</text>
<polygon fill="#8dd3c7" stroke="transparent" points="745,-10 745,-30 765,-30 765,-10 745,-10"/>
<text text-anchor="start" x="768.7251" y="-15.4" font-family="sans-serif" font-size="14.00" fill="#000000"> &#160;Module</text>
<polygon fill="#80b1d3" stroke="transparent" points="831,-10 831,-30 851,-30 851,-10 831,-10"/>
<text text-anchor="start" x="854.7812" y="-15.4" font-family="sans-serif" font-size="14.00" fill="#000000"> &#160;Bootstrap</text>
<polygon fill="#fdb462" stroke="transparent" points="928,-10 928,-30 948,-30 948,-10 928,-10"/>
<text text-anchor="start" x="951.6732" y="-15.4" font-family="sans-serif" font-size="14.00" fill="#000000"> &#160;Providers</text>
<polygon fill="#fb8072" stroke="transparent" points="1024,-10 1024,-30 1044,-30 1044,-10 1024,-10"/>
<text text-anchor="start" x="1047.7258" y="-15.4" font-family="sans-serif" font-size="14.00" fill="#000000"> &#160;Exports</text>
<g id="clust1" class="cluster">
<title>cluster_MiscPagesModule</title>
<polygon fill="none" stroke="#000000" stroke-dasharray="1,5" points="8,-70 8,-195 1724,-195 1724,-70 8,-70"/>
</g>
<g id="clust2" class="cluster">
<title>cluster_MiscPagesModule_declarations</title>
<polygon fill="none" stroke="#000000" points="511,-78 511,-130 1716,-130 1716,-78 511,-78"/>
</g>
<g id="clust11" class="cluster">
<title>cluster_MiscPagesModule_imports</title>
<polygon fill="none" stroke="#000000" points="16,-78 16,-130 503,-130 503,-78 16,-78"/>
</g>
<!-- AccessTokenComponent -->
<g id="node1" class="node">
<title>AccessTokenComponent</title>
<polygon fill="#ffffb3" stroke="#000000" points="1708.2394,-122 1551.7606,-122 1551.7606,-86 1708.2394,-86 1708.2394,-122"/>
<text text-anchor="middle" x="1630" y="-99.8" font-family="Times,serif" font-size="14.00" fill="#000000">AccessTokenComponent</text>
</g>
<!-- MiscPagesModule -->
<g id="node9" class="node">
<title>MiscPagesModule</title>
<polygon fill="#8dd3c7" stroke="#000000" points="935.2008,-187 932.2008,-191 911.2008,-191 908.2008,-187 814.7992,-187 814.7992,-151 935.2008,-151 935.2008,-187"/>
<text text-anchor="middle" x="875" y="-164.8" font-family="Times,serif" font-size="14.00" fill="#000000">MiscPagesModule</text>
</g>
<!-- AccessTokenComponent&#45;&gt;MiscPagesModule -->
<g id="edge1" class="edge">
<title>AccessTokenComponent&#45;&gt;MiscPagesModule</title>
<path fill="none" stroke="#000000" d="M1630,-122.0908C1630,-145.1328 1630,-182 1630,-182 1630,-182 945.1913,-182 945.1913,-182"/>
<polygon fill="#000000" stroke="#000000" points="945.1913,-178.5001 935.1913,-182 945.1912,-185.5001 945.1913,-178.5001"/>
</g>
<!-- ConformanceComponent -->
<g id="node2" class="node">
<title>ConformanceComponent</title>
<polygon fill="#ffffb3" stroke="#000000" points="1533.5253,-122 1376.4747,-122 1376.4747,-86 1533.5253,-86 1533.5253,-122"/>
<text text-anchor="middle" x="1455" y="-99.8" font-family="Times,serif" font-size="14.00" fill="#000000">ConformanceComponent</text>
</g>
<!-- ConformanceComponent&#45;&gt;MiscPagesModule -->
<g id="edge2" class="edge">
<title>ConformanceComponent&#45;&gt;MiscPagesModule</title>
<path fill="none" stroke="#000000" d="M1455,-122.2843C1455,-143.3211 1455,-175 1455,-175 1455,-175 945.157,-175 945.157,-175"/>
<polygon fill="#000000" stroke="#000000" points="945.157,-171.5001 935.157,-175 945.1569,-178.5001 945.157,-171.5001"/>
</g>
<!-- ConnectComponent -->
<g id="node3" class="node">
<title>ConnectComponent</title>
<polygon fill="#ffffb3" stroke="#000000" points="1357.9888,-122 1230.0112,-122 1230.0112,-86 1357.9888,-86 1357.9888,-122"/>
<text text-anchor="middle" x="1294" y="-99.8" font-family="Times,serif" font-size="14.00" fill="#000000">ConnectComponent</text>
</g>
<!-- ConnectComponent&#45;&gt;MiscPagesModule -->
<g id="edge3" class="edge">
<title>ConnectComponent&#45;&gt;MiscPagesModule</title>
<path fill="none" stroke="#000000" d="M1294,-122.1061C1294,-141.3391 1294,-169 1294,-169 1294,-169 945.4787,-169 945.4787,-169"/>
<polygon fill="#000000" stroke="#000000" points="945.4788,-165.5001 935.4787,-169 945.4787,-172.5001 945.4788,-165.5001"/>
</g>
<!-- IndexComponent -->
<g id="node4" class="node">
<title>IndexComponent</title>
<polygon fill="#ffffb3" stroke="#000000" points="1211.7078,-122 1098.2922,-122 1098.2922,-86 1211.7078,-86 1211.7078,-122"/>
<text text-anchor="middle" x="1155" y="-99.8" font-family="Times,serif" font-size="14.00" fill="#000000">IndexComponent</text>
</g>
<!-- IndexComponent&#45;&gt;MiscPagesModule -->
<g id="edge4" class="edge">
<title>IndexComponent&#45;&gt;MiscPagesModule</title>
<path fill="none" stroke="#000000" d="M1155,-122.0225C1155,-139.3734 1155,-163 1155,-163 1155,-163 945.4111,-163 945.4111,-163"/>
<polygon fill="#000000" stroke="#000000" points="945.4111,-159.5001 935.4111,-163 945.4111,-166.5001 945.4111,-159.5001"/>
</g>
<!-- LaunchComponent -->
<g id="node5" class="node">
<title>LaunchComponent</title>
<polygon fill="#ffffb3" stroke="#000000" points="1080.8146,-122 957.1854,-122 957.1854,-86 1080.8146,-86 1080.8146,-122"/>
<text text-anchor="middle" x="1019" y="-99.8" font-family="Times,serif" font-size="14.00" fill="#000000">LaunchComponent</text>
</g>
<!-- LaunchComponent&#45;&gt;MiscPagesModule -->
<g id="edge5" class="edge">
<title>LaunchComponent&#45;&gt;MiscPagesModule</title>
<path fill="none" stroke="#000000" d="M1019,-122.2396C1019,-137.5706 1019,-157 1019,-157 1019,-157 945.2346,-157 945.2346,-157"/>
<polygon fill="#000000" stroke="#000000" points="945.2346,-153.5001 935.2346,-157 945.2346,-160.5001 945.2346,-153.5001"/>
</g>
<!-- RedirectComponent -->
<g id="node6" class="node">
<title>RedirectComponent</title>
<polygon fill="#ffffb3" stroke="#000000" points="939.2548,-122 810.7452,-122 810.7452,-86 939.2548,-86 939.2548,-122"/>
<text text-anchor="middle" x="875" y="-99.8" font-family="Times,serif" font-size="14.00" fill="#000000">RedirectComponent</text>
</g>
<!-- RedirectComponent&#45;&gt;MiscPagesModule -->
<g id="edge6" class="edge">
<title>RedirectComponent&#45;&gt;MiscPagesModule</title>
<path fill="none" stroke="#000000" d="M875,-122.1061C875,-122.1061 875,-140.991 875,-140.991"/>
<polygon fill="#000000" stroke="#000000" points="871.5001,-140.9909 875,-150.991 878.5001,-140.991 871.5001,-140.9909"/>
</g>
<!-- StateComponent -->
<g id="node7" class="node">
<title>StateComponent</title>
<polygon fill="#ffffb3" stroke="#000000" points="792.8259,-122 683.1741,-122 683.1741,-86 792.8259,-86 792.8259,-122"/>
<text text-anchor="middle" x="738" y="-99.8" font-family="Times,serif" font-size="14.00" fill="#000000">StateComponent</text>
</g>
<!-- StateComponent&#45;&gt;MiscPagesModule -->
<g id="edge7" class="edge">
<title>StateComponent&#45;&gt;MiscPagesModule</title>
<path fill="none" stroke="#000000" d="M738,-122.2396C738,-137.5706 738,-157 738,-157 738,-157 804.511,-157 804.511,-157"/>
<polygon fill="#000000" stroke="#000000" points="804.511,-160.5001 814.511,-157 804.511,-153.5001 804.511,-160.5001"/>
</g>
<!-- UserProfileComponent -->
<g id="node8" class="node">
<title>UserProfileComponent</title>
<polygon fill="#ffffb3" stroke="#000000" points="664.8585,-122 519.1415,-122 519.1415,-86 664.8585,-86 664.8585,-122"/>
<text text-anchor="middle" x="592" y="-99.8" font-family="Times,serif" font-size="14.00" fill="#000000">UserProfileComponent</text>
</g>
<!-- UserProfileComponent&#45;&gt;MiscPagesModule -->
<g id="edge8" class="edge">
<title>UserProfileComponent&#45;&gt;MiscPagesModule</title>
<path fill="none" stroke="#000000" d="M592,-122.0225C592,-139.3734 592,-163 592,-163 592,-163 804.6365,-163 804.6365,-163"/>
<polygon fill="#000000" stroke="#000000" points="804.6366,-166.5001 814.6365,-163 804.6365,-159.5001 804.6366,-166.5001"/>
</g>
<!-- AllMaterialModule -->
<g id="node10" class="node">
<title>AllMaterialModule</title>
<polygon fill="#8dd3c7" stroke="#000000" points="495.3585,-122 492.3585,-126 471.3585,-126 468.3585,-122 370.6415,-122 370.6415,-86 495.3585,-86 495.3585,-122"/>
<text text-anchor="middle" x="433" y="-99.8" font-family="Times,serif" font-size="14.00" fill="#000000">AllMaterialModule</text>
</g>
<!-- AllMaterialModule&#45;&gt;MiscPagesModule -->
<g id="edge9" class="edge">
<title>AllMaterialModule&#45;&gt;MiscPagesModule</title>
<path fill="none" stroke="#000000" d="M433,-122.1061C433,-141.3391 433,-169 433,-169 433,-169 804.4686,-169 804.4686,-169"/>
<polygon fill="#000000" stroke="#000000" points="804.4686,-172.5001 814.4686,-169 804.4685,-165.5001 804.4686,-172.5001"/>
</g>
<!-- MiscPagesRoutingModule -->
<g id="node11" class="node">
<title>MiscPagesRoutingModule</title>
<polygon fill="#8dd3c7" stroke="#000000" points="352.8187,-122 349.8187,-126 328.8187,-126 325.8187,-122 187.1813,-122 187.1813,-86 352.8187,-86 352.8187,-122"/>
<text text-anchor="middle" x="270" y="-99.8" font-family="Times,serif" font-size="14.00" fill="#000000">MiscPagesRoutingModule</text>
</g>
<!-- MiscPagesRoutingModule&#45;&gt;MiscPagesModule -->
<g id="edge10" class="edge">
<title>MiscPagesRoutingModule&#45;&gt;MiscPagesModule</title>
<path fill="none" stroke="#000000" d="M270,-122.2843C270,-143.3211 270,-175 270,-175 270,-175 804.7784,-175 804.7784,-175"/>
<polygon fill="#000000" stroke="#000000" points="804.7785,-178.5001 814.7784,-175 804.7784,-171.5001 804.7785,-178.5001"/>
</g>
<!-- SmartCommonModule -->
<g id="node12" class="node">
<title>SmartCommonModule</title>
<polygon fill="#8dd3c7" stroke="#000000" points="169.6066,-122 166.6066,-126 145.6066,-126 142.6066,-122 24.3934,-122 24.3934,-86 169.6066,-86 169.6066,-122"/>
<text text-anchor="middle" x="97" y="-99.8" font-family="Times,serif" font-size="14.00" fill="#000000">SmartCommonModule</text>
</g>
<!-- SmartCommonModule&#45;&gt;MiscPagesModule -->
<g id="edge11" class="edge">
<title>SmartCommonModule&#45;&gt;MiscPagesModule</title>
<path fill="none" stroke="#000000" d="M97,-122.0908C97,-145.1328 97,-182 97,-182 97,-182 804.599,-182 804.599,-182"/>
<polygon fill="#000000" stroke="#000000" points="804.5991,-185.5001 814.599,-182 804.599,-178.5001 804.5991,-185.5001"/>
</g>
</g>
</svg>
